# Blender v2.79 (sub 0) OBJ File: ''
# www.blender.org
mtllib block.mtl
o Cube
v 0.500000 -0.500000 -0.500000
v 0.500000 -0.500000 0.500000
v -0.500000 -0.500000 0.500000
v -0.500000 -0.500000 -0.500000
v 0.500000 0.500000 -0.500000
v 0.500000 0.500000 0.500000
v -0.500000 0.500000 0.500000
v -0.500000 0.500000 -0.500000
vt 0.999942 0.999981
vt 0.000058 0.999981
vt 0.000058 0.666686
vt 0.999942 0.666686
vt 0.999942 0.666647
vt 0.000058 0.666647
vt 0.000058 0.333353
vt 0.999942 0.333353
vt 0.999942 0.000058
vt 0.999942 0.333352
vt 0.000058 0.333352
vt 0.000058 0.000058
vt 0.999942 0.000058
vt 0.000058 0.000058
vt 0.999942 0.000058
vt 0.999942 0.333353
vt 0.000058 0.333353
vt 0.000058 0.000058
vt 0.000058 0.333353
vt 0.000058 0.000058
vt 0.999942 0.000058
vt 0.999942 0.333352
vn 0.0000 -1.0000 0.0000
vn 0.0000 1.0000 0.0000
vn 1.0000 0.0000 0.0000
vn -0.0000 -0.0000 1.0000
vn -1.0000 -0.0000 -0.0000
vn 0.0000 0.0000 -1.0000
usemtl Material
s off
f 1/1/1 2/2/1 3/3/1 4/4/1
f 5/5/2 8/6/2 7/7/2 6/8/2
f 1/9/3 5/10/3 6/11/3 2/12/3
f 2/13/4 6/8/4 7/7/4 3/14/4
f 3/15/5 7/16/5 8/17/5 4/18/5
f 5/19/6 1/20/6 4/21/6 8/22/6
