# Blender v2.79 (sub 0) OBJ File: ''
# www.blender.org
mtllib spikes.mtl
o Cone
v 0.000000 -0.498989 0.236666
v 0.000000 -0.312321 0.330000
v 0.093334 -0.498989 0.330000
v -0.000000 -0.498989 0.423334
v -0.093334 -0.498989 0.330000
vn -0.6667 0.3333 -0.6667
vn 0.0000 -1.0000 0.0000
vn -0.6667 0.3333 0.6667
vn 0.6667 0.3333 -0.6667
vn 0.6667 0.3333 0.6667
usemtl None
s off
f 2//1 1//1 5//1
f 1//2 3//2 4//2 5//2
f 2//3 5//3 4//3
f 2//4 3//4 1//4
f 2//5 4//5 3//5
o Cone.001
v 0.000000 -0.498989 -0.093334
v 0.000000 -0.312321 0.000000
v 0.093334 -0.498989 -0.000000
v -0.000000 -0.498989 0.093334
v -0.093334 -0.498989 -0.000000
vn -0.6667 0.3333 -0.6667
vn 0.0000 -1.0000 0.0000
vn -0.6667 0.3333 0.6667
vn 0.6667 0.3333 -0.6667
vn 0.6667 0.3333 0.6667
usemtl None
s off
f 7//6 6//6 10//6
f 6//7 8//7 9//7 10//7
f 7//8 10//8 9//8
f 7//9 8//9 6//9
f 7//10 9//10 8//10
o Cone.002
v 0.000000 -0.493334 -0.423334
v 0.000000 -0.306666 -0.330000
v 0.093334 -0.493334 -0.330000
v -0.000000 -0.493334 -0.236666
v -0.093334 -0.493334 -0.330000
vn -0.6667 0.3333 -0.6667
vn 0.0000 -1.0000 0.0000
vn -0.6667 0.3333 0.6667
vn 0.6667 0.3333 -0.6667
vn 0.6667 0.3333 0.6667
usemtl None
s off
f 12//11 11//11 15//11
f 11//12 13//12 14//12 15//12
f 12//13 15//13 14//13
f 12//14 13//14 11//14
f 12//15 14//15 13//15
